- 
http://www.Speed.Cd 
       
http://www.Speed.Cd      fast  and The Hottest Private Tracker on the net

(((--Submit for invite!!--)))

Please Seed back to make the speed Faster!!!

------------------nfo--------------------------
-[IMG]http://img853.imageshack.us/img853/9950/arenah.jpg[/IMG]


[color=blue][size=5][b]Arena.2011.DVDRip.XVID.AC3.HQ.Hive-CM8[/b][/size][/color]


[b]Thx Hive

CM8 Doing It Right The First Time :D


Source: DVD-R

Encode:
Movie looks interesting!
Dvd was nice, made the usual video cleanup, sharpness, brightness, rgb, denoise
got very nice - enjoy

Note:
and 2 guest star appearances, Elena from vampire diaries and Chin Ho from hawai five-o

Video: 720x304 @bitrate 1800 2pass
Audio: English AC3 5.1 @448
Sample: yes, included[/b]


[url]http://www.imdb.com/title/tt1117581/[/url]


General
Complete name                    : Arena.2011.DVDRip.XVID.AC3.HQ.Hive-CM8.avi
Format                           : AVI
Format/Info                      : Audio Video Interleave
File size                        : 1.49 GiB
Duration                         : 1h 34mn
Overall bit rate                 : 2 257 Kbps
Writing application              : Nandub v1.0rc2
Writing library                  : Nandub build 1853/release

Video
ID                               : 0
Format                           : MPEG-4 Visual
Format profile                   : Advanced Simple@L5
Format settings, BVOP            : 2
Format settings, QPel            : Yes
Format settings, GMC             : No warppoints
Format settings, Matrix          : Default (H.263)
Muxing mode                      : Packed bitstream
Codec ID                         : XVID
Codec ID/Hint                    : XviD
Duration                         : 1h 34mn
Bit rate                         : 1 800 Kbps
Width                            : 720 pixels
Height                           : 304 pixels
Display aspect ratio             : 2.35:1
Frame rate                       : 23.976 fps
Color space                      : YUV
Chroma subsampling               : 4:2:0
Bit depth                        : 8 bits
Scan type                        : Progressive
Compression mode                 : Lossy
Bits/(Pixel*Frame)               : 0.343
Stream size                      : 1.18 GiB (80%)
Writing library                  : XviD 1.2.1 (UTC 2008-12-04)

Audio
ID                               : 1
Format                           : AC-3
Format/Info                      : Audio Coding 3
Mode extension                   : CM (complete main)
Codec ID                         : 2000
Duration                         : 1h 34mn
Bit rate mode                    : Constant
Bit rate                         : 448 Kbps
Channel(s)                       : 6 channels
Channel positions                : Front: L C R, Side: L R, LFE
Sampling rate                    : 48.0 KHz
Bit depth                        : 16 bits
Compression mode                 : Lossy
Stream size                      : 302 MiB (20%)
Alignment                        : Split accross interleaves
Interleave, duration             : 42 ms (1.00 video frame)
Interleave, preload duration     : 500 ms


Plot:
David Lord finds himself forced into the savage world of a modern gladiatorial arena,
where men fight to the death for the entertainment of the online masses.


Cast:
Kellan Lutz        ...   David Lord
Samuel L. Jackson
Nina Dobrev
James Remar        ...   Tall Man
Daniel Dae Kim


[IMG]http://img62.imageshack.us/img62/9371/araraaarararrr.png[/IMG]
[img]http://img267.imageshack.us/img267/5403/88263931.png[/img]
[img]http://img689.imageshack.us/img689/3637/arar.png[/img]
[img]http://img267.imageshack.us/img267/3176/araraarr.png[/img]
[img]http://img684.imageshack.us/img684/431/ararar.png[/img]
[img]http://img684.imageshack.us/img684/2069/araraaararrr.png[/img]
[img]http://img155.imageshack.us/img155/2046/araraaraarararrr.png[/img]



Greetz

ViSiON,SiC,SANTi,3LT0N,YanKeeS,MAGNET,THC,T0XiC,LKRG,FANTASIA-PLAY,FANTASIA-M,FLAWL3SS,
D2U,WBZ,BHRG,NOVA,Vik,Rapeseed,SAFC,goldadvance,MEMORY100,KaN1vE,Unevano,Pinnz,Wayne
Mr Hive,cedrict wink,and all P2P groups
Great Work Guys :D

FYS

LOOKING FOR ANYTHING YOU WANT TO LOOK AND SOUND BETTER

CM8@hushmail.com